<?xml version="1.0" standalone="no"?>
<!DOCTYPE svg PUBLIC "-//W3C//DTD SVG 20010904//EN"
 "http://www.w3.org/TR/2001/REC-SVG-20010904/DTD/svg10.dtd">
<svg version="1.0" xmlns="http://www.w3.org/2000/svg"
 width="63.000000pt" height="63.000000pt" viewBox="0 0 63.000000 63.000000"
 preserveAspectRatio="xMidYMid meet">

<g transform="translate(0.000000,63.000000) scale(0.100000,-0.100000)"
fill="#000000" stroke="none">
<path d="M132 598 c-7 -7 -12 -20 -12 -30 0 -14 -8 -18 -34 -18 -64 0 -66 -7
-66 -245 0 -181 2 -216 16 -229 13 -13 42 -16 165 -16 201 0 198 19 -3 22
l-153 3 -3 163 -2 162 275 0 275 0 0 -85 c0 -50 4 -85 10 -85 6 0 10 53 10
139 0 156 -6 171 -65 171 -27 0 -34 4 -37 21 -7 49 -69 49 -76 0 -3 -17 -10
-21 -43 -21 -34 0 -39 3 -39 24 0 26 -23 40 -51 31 -12 -4 -19 -16 -19 -31 0
-21 -4 -24 -40 -24 -32 0 -40 4 -40 18 0 22 -19 42 -40 42 -9 0 -21 -5 -28
-12z m43 -59 c0 -32 -4 -44 -15 -44 -16 0 -26 54 -16 82 12 30 31 6 31 -38z
m153 4 c-2 -27 -7 -48 -13 -48 -5 0 -11 21 -13 48 -3 38 0 47 13 47 13 0 16
-9 13 -47z m157 -4 c0 -32 -4 -44 -15 -44 -16 0 -26 54 -16 82 12 30 31 6 31
-38z m-365 -28 c0 -46 65 -51 76 -5 5 20 12 24 45 24 31 0 39 -4 39 -19 0 -10
7 -24 16 -32 20 -16 48 -1 52 30 3 17 10 21 42 21 32 0 39 -4 44 -24 12 -47
76 -41 76 6 0 16 6 19 37 16 38 -3 38 -3 41 -50 l3 -48 -275 0 -276 0 0 43 c0
52 4 57 47 57 26 0 33 -4 33 -19z"/>
<path d="M100 330 c0 -30 2 -31 38 -28 32 3 37 6 37 28 0 22 -5 25 -37 28 -36
3 -38 2 -38 -28z m58 -2 c-7 -19 -38 -22 -38 -4 0 10 9 16 21 16 12 0 19 -5
17 -12z"/>
<path d="M220 330 c0 -30 2 -31 38 -28 32 3 37 6 37 28 0 22 -5 25 -37 28 -36
3 -38 2 -38 -28z m58 -2 c-7 -19 -38 -22 -38 -4 0 10 9 16 21 16 12 0 19 -5
17 -12z"/>
<path d="M334 345 c-11 -28 4 -45 41 -45 32 0 35 2 35 30 0 28 -3 30 -35 30
-22 0 -38 -6 -41 -15z m56 -21 c0 -9 -7 -14 -17 -12 -25 5 -28 28 -4 28 12 0
21 -6 21 -16z"/>
<path d="M454 345 c-11 -28 4 -45 41 -45 32 0 35 2 35 30 0 28 -3 30 -35 30
-22 0 -38 -6 -41 -15z m56 -21 c0 -9 -7 -14 -17 -12 -25 5 -28 28 -4 28 12 0
21 -6 21 -16z"/>
<path d="M107 274 c-4 -4 -7 -20 -7 -36 0 -25 3 -28 35 -28 39 0 55 21 38 49
-11 17 -54 27 -66 15z m51 -31 c2 -8 -5 -13 -17 -13 -12 0 -21 6 -21 16 0 18
31 15 38 -3z"/>
<path d="M227 274 c-4 -4 -7 -20 -7 -36 0 -25 3 -28 35 -28 39 0 55 21 38 49
-11 17 -54 27 -66 15z m51 -31 c2 -8 -5 -13 -17 -13 -12 0 -21 6 -21 16 0 18
31 15 38 -3z"/>
<path d="M340 265 c-14 -17 -10 -47 8 -53 8 -2 11 5 10 20 -2 17 3 24 20 26
12 2 22 8 22 13 0 15 -46 10 -60 -6z"/>
<path d="M446 270 c-41 -13 -75 -48 -87 -92 -27 -103 86 -192 182 -143 92 48
89 183 -5 226 -46 21 -49 21 -90 9z m79 -24 c38 -16 65 -60 65 -107 0 -43 -56
-99 -99 -99 -48 0 -91 27 -107 67 -19 44 -11 83 24 115 43 41 65 45 117 24z"/>
<path d="M498 153 c-37 -36 -38 -37 -58 -18 -31 28 -38 8 -7 -22 l27 -27 45
44 c43 42 54 60 37 60 -4 0 -24 -17 -44 -37z"/>
<path d="M107 184 c-4 -4 -7 -20 -7 -36 0 -28 2 -29 38 -26 34 3 37 6 37 33 0
26 -4 30 -30 33 -17 2 -34 0 -38 -4z m53 -29 c0 -8 -9 -15 -20 -15 -11 0 -20
7 -20 15 0 8 9 15 20 15 11 0 20 -7 20 -15z"/>
<path d="M227 184 c-4 -4 -7 -20 -7 -36 0 -25 3 -28 35 -28 39 0 55 21 38 49
-11 17 -54 27 -66 15z m51 -31 c2 -8 -5 -13 -17 -13 -12 0 -21 6 -21 16 0 18
31 15 38 -3z"/>
</g>
</svg>
