<?xml version="1.0" standalone="no"?>
<!DOCTYPE svg PUBLIC "-//W3C//DTD SVG 20010904//EN"
 "http://www.w3.org/TR/2001/REC-SVG-20010904/DTD/svg10.dtd">
<svg version="1.0" xmlns="http://www.w3.org/2000/svg"
 width="63.000000pt" height="63.000000pt" viewBox="0 0 63.000000 63.000000"
 preserveAspectRatio="xMidYMid meet">

<g transform="translate(0.000000,63.000000) scale(0.100000,-0.100000)"
fill="#000000" stroke="none">
<path d="M253 540 c-43 -18 -56 -53 -48 -135 4 -50 13 -82 26 -99 10 -13 19
-31 19 -40 0 -17 -31 -40 -70 -51 -23 -7 -24 -6 -9 9 25 26 8 124 -26 154 -29
25 -43 27 -79 11 -28 -13 -42 -44 -50 -111 -4 -38 -2 -49 12 -57 16 -9 15 -11
-5 -26 -18 -13 -23 -26 -23 -61 0 -24 5 -44 10 -44 6 0 10 20 10 44 0 36 4 46
20 51 10 3 28 2 38 -4 11 -6 24 -6 33 0 25 16 29 10 29 -41 0 -27 5 -50 10
-50 6 0 10 20 10 44 0 47 10 61 51 71 21 5 30 2 42 -15 11 -16 21 -20 36 -15
18 5 20 1 24 -42 l3 -48 2 48 c2 44 4 48 23 42 15 -5 25 -1 36 15 12 17 21 20
42 15 41 -10 51 -24 51 -71 0 -25 5 -44 11 -44 7 0 10 20 7 55 -2 34 1 54 7
52 6 -2 11 -27 13 -55 4 -63 22 -70 22 -8 0 54 19 74 55 58 21 -10 25 -18 25
-57 0 -25 5 -45 11 -45 6 0 9 20 7 52 -3 52 -10 62 -63 81 -6 2 -2 13 7 23 10
12 20 46 24 87 l7 67 -57 0 c-97 0 -125 -50 -80 -144 19 -40 5 -51 -39 -33
-46 20 -54 48 -27 85 18 25 22 44 23 133 l2 104 -75 2 c-41 1 -85 -2 -97 -7z
m154 -105 c-7 -109 -15 -127 -56 -145 -70 -29 -116 12 -126 110 -11 112 3 128
119 129 l69 1 -6 -95z m-267 -75 c11 -11 20 -27 20 -35 0 -14 -3 -14 -30 0
-36 19 -54 19 -69 2 -15 -19 -3 -28 19 -15 14 9 24 8 44 -5 31 -21 32 -28 6
-52 -38 -34 -90 7 -90 71 0 21 37 54 60 54 11 0 29 -9 40 -20z m436 -30 c-9
-69 -14 -79 -43 -86 -34 -9 -59 18 -66 69 -7 55 5 67 66 67 l50 0 -7 -50z
m-216 -72 c0 -18 -43 -30 -66 -19 -37 16 -29 26 21 26 25 0 45 -3 45 -7z
m-304 -25 c-7 -7 -26 7 -26 19 0 6 6 6 15 -2 9 -7 13 -15 11 -17z m109 7 c-3
-5 -11 -10 -16 -10 -6 0 -7 5 -4 10 3 6 11 10 16 10 6 0 7 -4 4 -10z m119 -23
c15 -24 -2 -34 -19 -11 -8 10 -15 23 -15 27 0 13 22 3 34 -16z m96 17 c0 -13
-21 -44 -30 -44 -14 0 -12 24 2 38 13 13 28 16 28 6z m-262 -26 c-3 -7 -11
-13 -18 -13 -7 0 -15 6 -17 13 -3 7 4 12 17 12 13 0 20 -5 18 -12z m414 0 c-9
-9 -15 -9 -24 0 -9 9 -7 12 12 12 19 0 21 -3 12 -12z"/>
<path d="M247 453 c-4 -3 -7 -16 -7 -27 1 -20 1 -20 15 -2 11 14 23 17 57 14
24 -3 51 -8 61 -12 10 -5 17 -4 17 3 0 6 -12 16 -26 21 -29 11 -107 13 -117 3z"/>
<path d="M490 342 c0 -5 15 -12 33 -15 54 -8 53 8 -1 19 -19 4 -32 2 -32 -4z"/>
<path d="M570 125 c0 -19 5 -35 10 -35 6 0 10 16 10 35 0 19 -4 35 -10 35 -5
0 -10 -16 -10 -35z"/>
<path d="M40 120 c0 -16 5 -30 10 -30 6 0 10 14 10 30 0 17 -4 30 -10 30 -5 0
-10 -13 -10 -30z"/>
<path d="M200 115 c0 -14 5 -25 10 -25 6 0 10 11 10 25 0 14 -4 25 -10 25 -5
0 -10 -11 -10 -25z"/>
<path d="M410 115 c0 -14 5 -25 10 -25 6 0 10 11 10 25 0 14 -4 25 -10 25 -5
0 -10 -11 -10 -25z"/>
</g>
</svg>
