<svg version="1.0" xmlns="http://www.w3.org/2000/svg"
 width="63.000000pt" height="63.000000pt" fill="blue" viewBox="0 0 63.000000 63.000000"
 preserveAspectRatio="xMidYMid meet">

<g transform="translate(0.000000,63.000000) scale(0.100000,-0.100000)"
 stroke="none">
    <path d="M120 611 c0 -15 -8 -21 -32 -23 l-33 -3 0 -290 0 -290 228 -3 227 -2
    0 29 c0 26 4 30 33 33 l32 3 3 205 2 204 -77 78 -78 78 -152 0 c-145 0 -153
    -1 -153 -19z m290 -76 l0 -75 75 0 75 0 -2 -187 -3 -188 -207 -3 -208 -2 0
    265 0 265 135 0 135 0 0 -75z m80 0 l54 -55 -57 0 -57 0 0 55 c0 30 1 55 3 55
    1 0 27 -25 57 -55z m-372 -223 l2 -252 185 0 c178 0 185 -1 185 -20 0 -19 -7
    -20 -210 -20 l-210 0 0 268 c0 148 3 272 7 276 4 4 14 5 23 4 13 -3 15 -37 18
    -256z"/>
    <path d="M185 531 c-3 -2 -5 -22 -5 -43 0 -38 0 -38 40 -38 40 0 40 0 40 39 0
    37 -2 39 -35 43 -20 2 -38 2 -40 -1z m55 -41 c0 -13 -7 -20 -20 -20 -13 0 -20
    7 -20 20 0 13 7 20 20 20 13 0 20 -7 20 -20z"/>
    <path d="M180 420 c0 -5 9 -10 20 -10 11 0 20 5 20 10 0 6 -9 10 -20 10 -11 0
    -20 -4 -20 -10z"/>
    <path d="M245 420 c-4 -6 42 -10 129 -10 84 0 136 4 136 10 0 6 -50 10 -129
    10 -76 0 -132 -4 -136 -10z"/>
    <path d="M185 360 c-3 -5 3 -10 15 -10 12 0 18 5 15 10 -3 6 -10 10 -15 10 -5
    0 -12 -4 -15 -10z"/>
    <path d="M245 360 c-4 -6 42 -10 129 -10 84 0 136 4 136 10 0 6 -50 10 -129
    10 -76 0 -132 -4 -136 -10z"/>
    <path d="M188 288 c9 -9 15 -9 24 0 9 9 7 12 -12 12 -19 0 -21 -3 -12 -12z"/>
    <path d="M245 290 c4 -6 60 -10 136 -10 79 0 129 4 129 10 0 6 -52 10 -136 10
    -87 0 -133 -4 -129 -10z"/>
    <path d="M180 230 c0 -5 9 -10 20 -10 11 0 20 5 20 10 0 6 -9 10 -20 10 -11 0
    -20 -4 -20 -10z"/>
    <path d="M245 230 c4 -6 60 -10 136 -10 79 0 129 4 129 10 0 6 -52 10 -136 10
    -87 0 -133 -4 -129 -10z"/>
    <path d="M180 170 c0 -5 9 -10 20 -10 11 0 20 5 20 10 0 6 -9 10 -20 10 -11 0
    -20 -4 -20 -10z"/>
    <path d="M245 170 c-4 -6 42 -10 129 -10 84 0 136 4 136 10 0 6 -50 10 -129
    10 -76 0 -132 -4 -136 -10z"/>
</g>
</svg>
